<svg width="36" height="46" viewBox="0 0 36 46" fill="none" xmlns="http://www.w3.org/2000/svg">
<path d="M30.9398 27.4943C33.7346 27.4943 36 29.76 36 32.5552V34.622C36 35.9124 35.5968 37.1704 34.8466 38.2202C31.3682 43.0882 25.6884 45.5 17.9927 45.5C10.2952 45.5 4.61832 43.0873 1.14835 38.2166C0.401412 37.1681 0 35.9128 0 34.6254V32.5552C0 29.76 2.26548 27.4943 5.06012 27.4943H30.9398ZM17.9927 0.5C24.206 0.5 29.243 5.53771 29.243 11.752C29.243 17.9663 24.206 23.0041 17.9927 23.0041C11.7792 23.0041 6.74223 17.9663 6.74223 11.752C6.74223 5.53771 11.7792 0.5 17.9927 0.5Z" fill="#212121"/>
</svg>
