<svg width="30" height="30" viewBox="0 0 30 30" fill="none" xmlns="http://www.w3.org/2000/svg">
<path d="M15.4201 21.7961L15.5291 21.6699C15.8559 21.2295 15.8196 20.6045 15.4201 20.205L11.3412 16.126L21.3757 16.1256L21.5285 16.1152C22.0775 16.0408 22.5007 15.5701 22.5007 15.0006L22.4904 14.8479C22.416 14.2987 21.9453 13.8756 21.3757 13.8756L11.3382 13.876L15.421 9.79496L15.5301 9.66881C15.857 9.22845 15.8207 8.60344 15.4214 8.20396C14.9821 7.76455 14.2698 7.76442 13.8304 8.20367L7.82809 14.2036L7.71914 14.3298C7.39224 14.7702 7.42849 15.3954 7.82794 15.7948L13.8292 21.7961L13.9554 21.905C14.3958 22.2318 15.0207 22.1955 15.4201 21.7961ZM15 0C6.71572 0 0 6.71572 0 15C0 23.2842 6.71572 30 15 30C23.2842 30 30 23.2842 30 15C30 6.71572 23.2842 0 15 0ZM15 27.75C7.95837 27.75 2.25 22.0416 2.25 15C2.25 7.95837 7.95837 2.25 15 2.25C22.0416 2.25 27.75 7.95837 27.75 15C27.75 22.0416 22.0416 27.75 15 27.75Z" fill="#212121"/>
</svg>
