<svg width="30" height="30" viewBox="0 0 30 30" fill="none" xmlns="http://www.w3.org/2000/svg">
<path d="M15 0C23.2842 0 30 6.71572 30 15C30 23.2842 23.2842 30 15 30C6.71572 30 0 23.2842 0 15C0 6.71572 6.71572 0 15 0ZM15 2.25C7.95836 2.25 2.25 7.95836 2.25 15C2.25 22.0416 7.95836 27.75 15 27.75C22.0416 27.75 27.75 22.0416 27.75 15C27.75 7.95836 22.0416 2.25 15 2.25ZM14.4705 8.32961L14.5794 8.20345C14.9789 7.80404 15.6039 7.76773 16.0443 8.09452L16.1705 8.20345L22.1717 14.2047C22.5711 14.6041 22.6074 15.2292 22.2806 15.6696L22.1715 15.7959L16.1693 21.7959C15.7299 22.2351 15.0176 22.2349 14.5782 21.7954C14.1789 21.396 14.1428 20.7711 14.4696 20.3307L14.5785 20.2045L18.6615 16.1235L8.62393 16.1239C8.05439 16.1239 7.58369 15.7006 7.5092 15.1516L7.49893 14.9989C7.49893 14.4294 7.92217 13.9587 8.47127 13.8841L8.62393 13.8739L18.6585 13.8735L14.5794 9.79444C14.1801 9.39503 14.1438 8.77004 14.4705 8.32961Z" fill="#212121"/>
</svg>
